<svg xmlns="http://www.w3.org/2000/svg" viewBox="0 0 521.57 521.57"><line x1="521.27" y1="521.57" x2="521.27" style="fill:none;stroke:#fff;stroke-linecap:round;stroke-linejoin:round;stroke-width:1.4998154640197754px"/><line y2="521.57" style="fill:none;stroke:#fff;stroke-linecap:round;stroke-linejoin:round;stroke-width:1.4998154640197754px"/><line y1="521.57" style="fill:none;stroke:#fff;stroke-linecap:round;stroke-linejoin:round;stroke-width:1.4998154640197754px"/><line x1="521.27" x2="521.27" y2="521.57" style="fill:none;stroke:#fff;stroke-linecap:round;stroke-linejoin:round;stroke-width:1.4998154640197754px"/><line x2="521.27" style="fill:none;stroke:#fff;stroke-linecap:round;stroke-linejoin:round;stroke-width:1.4998154640197754px"/><line y1="391.1" x2="2.15" y2="391.1" style="fill:none;stroke:#fff;stroke-linecap:round;stroke-linejoin:round"/><line x1="4.29" y1="391.1" x2="5.93" y2="391.1" style="fill:none;stroke:#fff;stroke-linecap:round;stroke-linejoin:round;stroke-dasharray:0.5694114565849304,2.1352927684783936"/><line x1="7.05" y1="391.1" x2="518" y2="391.1" style="fill:none;stroke:#fff;stroke-linecap:round;stroke-linejoin:round;stroke-dasharray:4.270585536956787,2.1352927684783936,0.5694114565849304,2.1352927684783936"/><line x1="519.12" y1="391.1" x2="521.27" y2="391.1" style="fill:none;stroke:#fff;stroke-linecap:round;stroke-linejoin:round"/><line y1="260.74" x2="2.15" y2="260.74" style="fill:none;stroke:#fff;stroke-linecap:round;stroke-linejoin:round"/><line x1="4.29" y1="260.74" x2="5.93" y2="260.74" style="fill:none;stroke:#fff;stroke-linecap:round;stroke-linejoin:round;stroke-dasharray:0.5694114565849304,2.1352927684783936"/><line x1="7.05" y1="260.74" x2="518" y2="260.74" style="fill:none;stroke:#fff;stroke-linecap:round;stroke-linejoin:round;stroke-dasharray:4.270585536956787,2.1352927684783936,0.5694114565849304,2.1352927684783936"/><line x1="519.12" y1="260.74" x2="521.27" y2="260.74" style="fill:none;stroke:#fff;stroke-linecap:round;stroke-linejoin:round"/><line x1="521.27" y1="130.37" x2="519.12" y2="130.37" style="fill:none;stroke:#fff;stroke-linecap:round;stroke-linejoin:round"/><line x1="516.88" y1="130.37" x2="515.24" y2="130.37" style="fill:none;stroke:#fff;stroke-linecap:round;stroke-linejoin:round;stroke-dasharray:0.5694114565849304,2.1352927684783936"/><line x1="514.12" y1="130.37" x2="3.17" y2="130.37" style="fill:none;stroke:#fff;stroke-linecap:round;stroke-linejoin:round;stroke-dasharray:4.270585536956787,2.1352927684783936,0.5694114565849304,2.1352927684783936"/><line x1="2.15" y1="130.37" y2="130.37" style="fill:none;stroke:#fff;stroke-linecap:round;stroke-linejoin:round"/><line x1="130.27" y1="521.57" x2="130.27" y2="519.33" style="fill:none;stroke:#fff;stroke-linecap:round;stroke-linejoin:round"/><line x1="130.27" y1="517.18" x2="130.27" y2="515.55" style="fill:none;stroke:#fff;stroke-linecap:round;stroke-linejoin:round;stroke-dasharray:0.5697196125984192,2.1364481449127197"/><line x1="130.27" y1="514.42" x2="130.27" y2="3.17" style="fill:none;stroke:#fff;stroke-linecap:round;stroke-linejoin:round;stroke-dasharray:4.2728962898254395,2.1364481449127197,0.5697196125984192,2.1364481449127197"/><line x1="130.27" y1="2.15" x2="130.27" style="fill:none;stroke:#fff;stroke-linecap:round;stroke-linejoin:round"/><line x1="260.63" x2="260.63" y2="2.15" style="fill:none;stroke:#fff;stroke-linecap:round;stroke-linejoin:round"/><line x1="260.63" y1="4.29" x2="260.63" y2="6.03" style="fill:none;stroke:#fff;stroke-linecap:round;stroke-linejoin:round;stroke-dasharray:0.5697196125984192,2.1364481449127197"/><line x1="260.63" y1="7.05" x2="260.63" y2="518.31" style="fill:none;stroke:#fff;stroke-linecap:round;stroke-linejoin:round;stroke-dasharray:4.2728962898254395,2.1364481449127197,0.5697196125984192,2.1364481449127197"/><line x1="260.63" y1="519.33" x2="260.63" y2="521.57" style="fill:none;stroke:#fff;stroke-linecap:round;stroke-linejoin:round"/><line x1="390.9" y1="494.5" x2="390.9" y2="492.25" style="fill:none;stroke:#fff;stroke-linecap:round;stroke-linejoin:round"/><line x1="390.9" y1="490.11" x2="390.9" y2="488.47" style="fill:none;stroke:#fff;stroke-linecap:round;stroke-linejoin:round;stroke-dasharray:0.5707434415817261,2.1402876377105713"/><line x1="390.9" y1="487.35" x2="390.9" y2="3.17" style="fill:none;stroke:#fff;stroke-linecap:round;stroke-linejoin:round;stroke-dasharray:4.280575275421143,2.1402876377105713,0.5707434415817261,2.1402876377105713"/><line x1="390.9" y1="2.15" x2="390.9" style="fill:none;stroke:#fff;stroke-linecap:round;stroke-linejoin:round"/><line y1="521.57" x2="521.27" y2="521.57" style="fill:none;stroke:#fff;stroke-linecap:round;stroke-linejoin:round;stroke-width:1.4998154640197754px"/><path d="M366.47,499.7h3.22v12.66h7.71v2.78H366.47Z" style="fill:#fff"/><path d="M379.57,499.7h3.28v9.48a5.32,5.32,0,0,0,.38,2.32,3.13,3.13,0,0,0,5.08,0,5.32,5.32,0,0,0,.38-2.32V499.7H392v9.49a7.91,7.91,0,0,1-.77,3.83q-1.41,2.52-5.42,2.52c-2.67,0-4.49-.84-5.44-2.52a7.91,7.91,0,0,1-.77-3.83Z" style="fill:#fff"/><path d="M395.07,499.7h3.23v12.66H406v2.78H395.07Z" style="fill:#fff"/><path d="M407.09,512.42l7.89-10h-7.69V499.7H419v2.58l-8,10.14h8v2.72H407.09Z" style="fill:#fff"/><path d="M432.8,501.34a3.88,3.88,0,0,1,.71,2.36,3.46,3.46,0,0,1-.71,2.27,3.67,3.67,0,0,1-1.18.88,3.44,3.44,0,0,1,1.78,1.36,4.13,4.13,0,0,1,.6,2.27,4.6,4.6,0,0,1-.68,2.46,4.12,4.12,0,0,1-1.1,1.21,4.19,4.19,0,0,1-1.74.78,10.68,10.68,0,0,1-2.18.21h-7V499.7h7.46A4.7,4.7,0,0,1,432.8,501.34Zm-8.38,1v3.4h3.75a3,3,0,0,0,1.63-.38,1.46,1.46,0,0,0,.63-1.36,1.39,1.39,0,0,0-.83-1.42,5.81,5.81,0,0,0-1.82-.24Zm0,6v4.12h3.75a3.64,3.64,0,0,0,1.56-.27,2,2,0,0,0,1-1.93,1.66,1.66,0,0,0-1-1.66,3.89,3.89,0,0,0-1.54-.26Z" style="fill:#fff"/><path d="M448.67,513.77a8,8,0,0,1-10.12,0,8.36,8.36,0,0,1-2.35-6.37c0-2.83.79-5,2.35-6.37a8,8,0,0,1,10.12,0c1.56,1.41,2.34,3.54,2.34,6.37A8.36,8.36,0,0,1,448.67,513.77Zm-2-2.35a7.77,7.77,0,0,0,0-8,3.68,3.68,0,0,0-3.05-1.42,3.73,3.73,0,0,0-3.06,1.41,7.68,7.68,0,0,0,0,8.05,4,4,0,0,0,6.11,0Z" style="fill:#fff"/><path d="M464.69,499.7v2.73h-4.62v12.71h-3.25V502.43h-4.64V499.7Z" style="fill:#fff"/><path d="M482.79,499.7h4.64v15.44h-3V504.69c0-.3,0-.72,0-1.26s0-1,0-1.25l-2.92,13h-3.14l-2.91-13c0,.29,0,.71,0,1.25s0,1,0,1.26v10.45h-3V499.7h4.69L480,511.84Z" style="fill:#fff"/><path d="M493.36,515.14h-3.21V499.7h3.21Z" style="fill:#fff"/><path d="M496.33,499.7h3.38l6.13,10.76V499.7h3v15.44h-3.23l-6.29-11v11h-3Z" style="fill:#fff"/><path d="M514.82,515.14h-3.21V499.7h3.21Z" style="fill:#fff"/></svg>